<svg xmlns="http://www.w3.org/2000/svg" xmlns:xlink="http://www.w3.org/1999/xlink" width="600" height="400" viewBox="0 0 2400 1600">
<defs>
  <clipPath id="clip500">
    <rect x="0" y="0" width="2400" height="1600"></rect>
  </clipPath>
</defs>
<path clip-path="url(#clip500)" d="M0 1600 L2400 1600 L2400 0 L0 0  Z" fill="#ffffff" fill-rule="evenodd" fill-opacity="1"></path>
<defs>
  <clipPath id="clip501">
    <rect x="480" y="0" width="1681" height="1600"></rect>
  </clipPath>
</defs>
<path clip-path="url(#clip500)" d="M255.607 1423.18 L2352.76 1423.18 L2352.76 123.472 L255.607 123.472  Z" fill="#ffffff" fill-rule="evenodd" fill-opacity="1"></path>
<defs>
  <clipPath id="clip502">
    <rect x="255" y="123" width="2098" height="1301"></rect>
  </clipPath>
</defs>
<polyline clip-path="url(#clip502)" style="stroke:#000000; stroke-linecap:round; stroke-linejoin:round; stroke-width:2; stroke-opacity:0.1; fill:none" points="314.96,1423.18 314.96,123.472 "></polyline>
<polyline clip-path="url(#clip502)" style="stroke:#000000; stroke-linecap:round; stroke-linejoin:round; stroke-width:2; stroke-opacity:0.1; fill:none" points="809.571,1423.18 809.571,123.472 "></polyline>
<polyline clip-path="url(#clip502)" style="stroke:#000000; stroke-linecap:round; stroke-linejoin:round; stroke-width:2; stroke-opacity:0.1; fill:none" points="1304.18,1423.18 1304.18,123.472 "></polyline>
<polyline clip-path="url(#clip502)" style="stroke:#000000; stroke-linecap:round; stroke-linejoin:round; stroke-width:2; stroke-opacity:0.1; fill:none" points="1798.79,1423.18 1798.79,123.472 "></polyline>
<polyline clip-path="url(#clip502)" style="stroke:#000000; stroke-linecap:round; stroke-linejoin:round; stroke-width:2; stroke-opacity:0.1; fill:none" points="2293.4,1423.18 2293.4,123.472 "></polyline>
<polyline clip-path="url(#clip500)" style="stroke:#000000; stroke-linecap:round; stroke-linejoin:round; stroke-width:4; stroke-opacity:1; fill:none" points="255.607,1423.18 2352.76,1423.18 "></polyline>
<polyline clip-path="url(#clip500)" style="stroke:#000000; stroke-linecap:round; stroke-linejoin:round; stroke-width:4; stroke-opacity:1; fill:none" points="314.96,1423.18 314.96,1404.28 "></polyline>
<polyline clip-path="url(#clip500)" style="stroke:#000000; stroke-linecap:round; stroke-linejoin:round; stroke-width:4; stroke-opacity:1; fill:none" points="809.571,1423.18 809.571,1404.28 "></polyline>
<polyline clip-path="url(#clip500)" style="stroke:#000000; stroke-linecap:round; stroke-linejoin:round; stroke-width:4; stroke-opacity:1; fill:none" points="1304.18,1423.18 1304.18,1404.28 "></polyline>
<polyline clip-path="url(#clip500)" style="stroke:#000000; stroke-linecap:round; stroke-linejoin:round; stroke-width:4; stroke-opacity:1; fill:none" points="1798.79,1423.18 1798.79,1404.28 "></polyline>
<polyline clip-path="url(#clip500)" style="stroke:#000000; stroke-linecap:round; stroke-linejoin:round; stroke-width:4; stroke-opacity:1; fill:none" points="2293.4,1423.18 2293.4,1404.28 "></polyline>
<path clip-path="url(#clip500)" d="M292.344 1454.1 Q288.733 1454.1 286.905 1457.66 Q285.099 1461.2 285.099 1468.33 Q285.099 1475.44 286.905 1479.01 Q288.733 1482.55 292.344 1482.55 Q295.979 1482.55 297.784 1479.01 Q299.613 1475.44 299.613 1468.33 Q299.613 1461.2 297.784 1457.66 Q295.979 1454.1 292.344 1454.1 M292.344 1450.39 Q298.155 1450.39 301.21 1455 Q304.289 1459.58 304.289 1468.33 Q304.289 1477.06 301.21 1481.67 Q298.155 1486.25 292.344 1486.25 Q286.534 1486.25 283.456 1481.67 Q280.4 1477.06 280.4 1468.33 Q280.4 1459.58 283.456 1455 Q286.534 1450.39 292.344 1450.39 Z" fill="#000000" fill-rule="nonzero" fill-opacity="1"></path><path clip-path="url(#clip500)" d="M312.506 1479.7 L317.391 1479.7 L317.391 1485.58 L312.506 1485.58 L312.506 1479.7 Z" fill="#000000" fill-rule="nonzero" fill-opacity="1"></path><path clip-path="url(#clip500)" d="M337.576 1454.1 Q333.965 1454.1 332.136 1457.66 Q330.33 1461.2 330.33 1468.33 Q330.33 1475.44 332.136 1479.01 Q333.965 1482.55 337.576 1482.55 Q341.21 1482.55 343.015 1479.01 Q344.844 1475.44 344.844 1468.33 Q344.844 1461.2 343.015 1457.66 Q341.21 1454.1 337.576 1454.1 M337.576 1450.39 Q343.386 1450.39 346.441 1455 Q349.52 1459.58 349.52 1468.33 Q349.52 1477.06 346.441 1481.67 Q343.386 1486.25 337.576 1486.25 Q331.766 1486.25 328.687 1481.67 Q325.631 1477.06 325.631 1468.33 Q325.631 1459.58 328.687 1455 Q331.766 1450.39 337.576 1450.39 Z" fill="#000000" fill-rule="nonzero" fill-opacity="1"></path><path clip-path="url(#clip500)" d="M781.307 1481.64 L797.626 1481.64 L797.626 1485.58 L775.682 1485.58 L775.682 1481.64 Q778.344 1478.89 782.927 1474.26 Q787.534 1469.61 788.714 1468.27 Q790.96 1465.74 791.839 1464.01 Q792.742 1462.25 792.742 1460.56 Q792.742 1457.8 790.798 1456.07 Q788.876 1454.33 785.775 1454.33 Q783.575 1454.33 781.122 1455.09 Q778.691 1455.86 775.913 1457.41 L775.913 1452.69 Q778.738 1451.55 781.191 1450.97 Q783.645 1450.39 785.682 1450.39 Q791.052 1450.39 794.247 1453.08 Q797.441 1455.77 797.441 1460.26 Q797.441 1462.39 796.631 1464.31 Q795.844 1466.2 793.737 1468.8 Q793.159 1469.47 790.057 1472.69 Q786.955 1475.88 781.307 1481.64 Z" fill="#000000" fill-rule="nonzero" fill-opacity="1"></path><path clip-path="url(#clip500)" d="M807.441 1479.7 L812.325 1479.7 L812.325 1485.58 L807.441 1485.58 L807.441 1479.7 Z" fill="#000000" fill-rule="nonzero" fill-opacity="1"></path><path clip-path="url(#clip500)" d="M822.557 1451.02 L840.913 1451.02 L840.913 1454.96 L826.839 1454.96 L826.839 1463.43 Q827.858 1463.08 828.876 1462.92 Q829.895 1462.73 830.913 1462.73 Q836.7 1462.73 840.08 1465.9 Q843.459 1469.08 843.459 1474.49 Q843.459 1480.07 839.987 1483.17 Q836.515 1486.25 830.196 1486.25 Q828.02 1486.25 825.751 1485.88 Q823.506 1485.51 821.098 1484.77 L821.098 1480.07 Q823.182 1481.2 825.404 1481.76 Q827.626 1482.32 830.103 1482.32 Q834.108 1482.32 836.446 1480.21 Q838.784 1478.1 838.784 1474.49 Q838.784 1470.88 836.446 1468.77 Q834.108 1466.67 830.103 1466.67 Q828.228 1466.67 826.353 1467.08 Q824.501 1467.5 822.557 1468.38 L822.557 1451.02 Z" fill="#000000" fill-rule="nonzero" fill-opacity="1"></path><path clip-path="url(#clip500)" d="M1271.35 1451.02 L1289.7 1451.02 L1289.7 1454.96 L1275.63 1454.96 L1275.63 1463.43 Q1276.65 1463.08 1277.67 1462.92 Q1278.68 1462.73 1279.7 1462.73 Q1285.49 1462.73 1288.87 1465.9 Q1292.25 1469.08 1292.25 1474.49 Q1292.25 1480.07 1288.78 1483.17 Q1285.3 1486.25 1278.98 1486.25 Q1276.81 1486.25 1274.54 1485.88 Q1272.29 1485.51 1269.89 1484.77 L1269.89 1480.07 Q1271.97 1481.2 1274.19 1481.76 Q1276.42 1482.32 1278.89 1482.32 Q1282.9 1482.32 1285.23 1480.21 Q1287.57 1478.1 1287.57 1474.49 Q1287.57 1470.88 1285.23 1468.77 Q1282.9 1466.67 1278.89 1466.67 Q1277.02 1466.67 1275.14 1467.08 Q1273.29 1467.5 1271.35 1468.38 L1271.35 1451.02 Z" fill="#000000" fill-rule="nonzero" fill-opacity="1"></path><path clip-path="url(#clip500)" d="M1301.46 1479.7 L1306.35 1479.7 L1306.35 1485.58 L1301.46 1485.58 L1301.46 1479.7 Z" fill="#000000" fill-rule="nonzero" fill-opacity="1"></path><path clip-path="url(#clip500)" d="M1326.53 1454.1 Q1322.92 1454.1 1321.09 1457.66 Q1319.29 1461.2 1319.29 1468.33 Q1319.29 1475.44 1321.09 1479.01 Q1322.92 1482.55 1326.53 1482.55 Q1330.17 1482.55 1331.97 1479.01 Q1333.8 1475.44 1333.8 1468.33 Q1333.8 1461.2 1331.97 1457.66 Q1330.17 1454.1 1326.53 1454.1 M1326.53 1450.39 Q1332.34 1450.39 1335.4 1455 Q1338.48 1459.58 1338.48 1468.33 Q1338.48 1477.06 1335.4 1481.67 Q1332.34 1486.25 1326.53 1486.25 Q1320.72 1486.25 1317.64 1481.67 Q1314.59 1477.06 1314.59 1468.33 Q1314.59 1459.58 1317.64 1455 Q1320.72 1450.39 1326.53 1450.39 Z" fill="#000000" fill-rule="nonzero" fill-opacity="1"></path><path clip-path="url(#clip500)" d="M1765.11 1451.02 L1787.33 1451.02 L1787.33 1453.01 L1774.79 1485.58 L1769.9 1485.58 L1781.71 1454.96 L1765.11 1454.96 L1765.11 1451.02 Z" fill="#000000" fill-rule="nonzero" fill-opacity="1"></path><path clip-path="url(#clip500)" d="M1796.45 1479.7 L1801.34 1479.7 L1801.34 1485.58 L1796.45 1485.58 L1796.45 1479.7 Z" fill="#000000" fill-rule="nonzero" fill-opacity="1"></path><path clip-path="url(#clip500)" d="M1811.57 1451.02 L1829.93 1451.02 L1829.93 1454.96 L1815.85 1454.96 L1815.85 1463.43 Q1816.87 1463.08 1817.89 1462.92 Q1818.91 1462.73 1819.93 1462.73 Q1825.71 1462.73 1829.09 1465.9 Q1832.47 1469.08 1832.47 1474.49 Q1832.47 1480.07 1829 1483.17 Q1825.53 1486.25 1819.21 1486.25 Q1817.03 1486.25 1814.76 1485.88 Q1812.52 1485.51 1810.11 1484.77 L1810.11 1480.07 Q1812.19 1481.2 1814.42 1481.76 Q1816.64 1482.32 1819.12 1482.32 Q1823.12 1482.32 1825.46 1480.21 Q1827.8 1478.1 1827.8 1474.49 Q1827.8 1470.88 1825.46 1468.77 Q1823.12 1466.67 1819.12 1466.67 Q1817.24 1466.67 1815.37 1467.08 Q1813.51 1467.5 1811.57 1468.38 L1811.57 1451.02 Z" fill="#000000" fill-rule="nonzero" fill-opacity="1"></path><path clip-path="url(#clip500)" d="M2245.47 1481.64 L2253.11 1481.64 L2253.11 1455.28 L2244.8 1456.95 L2244.8 1452.69 L2253.07 1451.02 L2257.74 1451.02 L2257.74 1481.64 L2265.38 1481.64 L2265.38 1485.58 L2245.47 1485.58 L2245.47 1481.64 Z" fill="#000000" fill-rule="nonzero" fill-opacity="1"></path><path clip-path="url(#clip500)" d="M2284.83 1454.1 Q2281.22 1454.1 2279.39 1457.66 Q2277.58 1461.2 2277.58 1468.33 Q2277.58 1475.44 2279.39 1479.01 Q2281.22 1482.55 2284.83 1482.55 Q2288.46 1482.55 2290.27 1479.01 Q2292.09 1475.44 2292.09 1468.33 Q2292.09 1461.2 2290.27 1457.66 Q2288.46 1454.1 2284.83 1454.1 M2284.83 1450.39 Q2290.64 1450.39 2293.69 1455 Q2296.77 1459.58 2296.77 1468.33 Q2296.77 1477.06 2293.69 1481.67 Q2290.64 1486.25 2284.83 1486.25 Q2279.02 1486.25 2275.94 1481.67 Q2272.88 1477.06 2272.88 1468.33 Q2272.88 1459.58 2275.94 1455 Q2279.02 1450.39 2284.83 1450.39 Z" fill="#000000" fill-rule="nonzero" fill-opacity="1"></path><path clip-path="url(#clip500)" d="M2304.99 1479.7 L2309.87 1479.7 L2309.87 1485.58 L2304.99 1485.58 L2304.99 1479.7 Z" fill="#000000" fill-rule="nonzero" fill-opacity="1"></path><path clip-path="url(#clip500)" d="M2330.06 1454.1 Q2326.45 1454.1 2324.62 1457.66 Q2322.81 1461.2 2322.81 1468.33 Q2322.81 1475.44 2324.62 1479.01 Q2326.45 1482.55 2330.06 1482.55 Q2333.69 1482.55 2335.5 1479.01 Q2337.33 1475.44 2337.33 1468.33 Q2337.33 1461.2 2335.5 1457.66 Q2333.69 1454.1 2330.06 1454.1 M2330.06 1450.39 Q2335.87 1450.39 2338.92 1455 Q2342 1459.58 2342 1468.33 Q2342 1477.06 2338.92 1481.67 Q2335.87 1486.25 2330.06 1486.25 Q2324.25 1486.25 2321.17 1481.67 Q2318.11 1477.06 2318.11 1468.33 Q2318.11 1459.58 2321.17 1455 Q2324.25 1450.39 2330.06 1450.39 Z" fill="#000000" fill-rule="nonzero" fill-opacity="1"></path><path clip-path="url(#clip500)" d="M1226.06 1520.52 L1266.26 1520.52 L1266.26 1525.93 L1249.39 1525.93 L1249.39 1568.04 L1242.93 1568.04 L1242.93 1525.93 L1226.06 1525.93 L1226.06 1520.52 Z" fill="#000000" fill-rule="nonzero" fill-opacity="1"></path><path clip-path="url(#clip500)" d="M1270.2 1532.4 L1276.06 1532.4 L1276.06 1568.04 L1270.2 1568.04 L1270.2 1532.4 M1270.2 1518.52 L1276.06 1518.52 L1276.06 1525.93 L1270.2 1525.93 L1270.2 1518.52 Z" fill="#000000" fill-rule="nonzero" fill-opacity="1"></path><path clip-path="url(#clip500)" d="M1316.07 1539.24 Q1318.27 1535.29 1321.32 1533.41 Q1324.38 1531.54 1328.51 1531.54 Q1334.08 1531.54 1337.11 1535.45 Q1340.13 1539.33 1340.13 1546.53 L1340.13 1568.04 L1334.24 1568.04 L1334.24 1546.72 Q1334.24 1541.59 1332.43 1539.11 Q1330.61 1536.63 1326.89 1536.63 Q1322.34 1536.63 1319.7 1539.65 Q1317.06 1542.68 1317.06 1547.9 L1317.06 1568.04 L1311.17 1568.04 L1311.17 1546.72 Q1311.17 1541.56 1309.35 1539.11 Q1307.54 1536.63 1303.75 1536.63 Q1299.26 1536.63 1296.62 1539.68 Q1293.98 1542.71 1293.98 1547.9 L1293.98 1568.04 L1288.09 1568.04 L1288.09 1532.4 L1293.98 1532.4 L1293.98 1537.93 Q1295.99 1534.66 1298.79 1533.1 Q1301.59 1531.54 1305.44 1531.54 Q1309.32 1531.54 1312.03 1533.51 Q1314.76 1535.48 1316.07 1539.24 Z" fill="#000000" fill-rule="nonzero" fill-opacity="1"></path><path clip-path="url(#clip500)" d="M1382.3 1548.76 L1382.3 1551.62 L1355.38 1551.62 Q1355.76 1557.67 1359.01 1560.85 Q1362.28 1564 1368.11 1564 Q1371.48 1564 1374.63 1563.17 Q1377.82 1562.35 1380.94 1560.69 L1380.94 1566.23 Q1377.78 1567.57 1374.47 1568.27 Q1371.16 1568.97 1367.76 1568.97 Q1359.23 1568.97 1354.23 1564 Q1349.27 1559.04 1349.27 1550.57 Q1349.27 1541.82 1353.98 1536.69 Q1358.72 1531.54 1366.74 1531.54 Q1373.93 1531.54 1378.1 1536.18 Q1382.3 1540.8 1382.3 1548.76 M1376.45 1547.04 Q1376.38 1542.23 1373.74 1539.37 Q1371.13 1536.5 1366.8 1536.5 Q1361.9 1536.5 1358.94 1539.27 Q1356.01 1542.04 1355.57 1547.07 L1376.45 1547.04 Z" fill="#000000" fill-rule="nonzero" fill-opacity="1"></path><polyline clip-path="url(#clip502)" style="stroke:#000000; stroke-linecap:round; stroke-linejoin:round; stroke-width:2; stroke-opacity:0.1; fill:none" points="255.607,1204.16 2352.76,1204.16 "></polyline>
<polyline clip-path="url(#clip502)" style="stroke:#000000; stroke-linecap:round; stroke-linejoin:round; stroke-width:2; stroke-opacity:0.1; fill:none" points="255.607,898.266 2352.76,898.266 "></polyline>
<polyline clip-path="url(#clip502)" style="stroke:#000000; stroke-linecap:round; stroke-linejoin:round; stroke-width:2; stroke-opacity:0.1; fill:none" points="255.607,592.37 2352.76,592.37 "></polyline>
<polyline clip-path="url(#clip502)" style="stroke:#000000; stroke-linecap:round; stroke-linejoin:round; stroke-width:2; stroke-opacity:0.1; fill:none" points="255.607,286.474 2352.76,286.474 "></polyline>
<polyline clip-path="url(#clip500)" style="stroke:#000000; stroke-linecap:round; stroke-linejoin:round; stroke-width:4; stroke-opacity:1; fill:none" points="255.607,1423.18 255.607,123.472 "></polyline>
<polyline clip-path="url(#clip500)" style="stroke:#000000; stroke-linecap:round; stroke-linejoin:round; stroke-width:4; stroke-opacity:1; fill:none" points="255.607,1204.16 274.504,1204.16 "></polyline>
<polyline clip-path="url(#clip500)" style="stroke:#000000; stroke-linecap:round; stroke-linejoin:round; stroke-width:4; stroke-opacity:1; fill:none" points="255.607,898.266 274.504,898.266 "></polyline>
<polyline clip-path="url(#clip500)" style="stroke:#000000; stroke-linecap:round; stroke-linejoin:round; stroke-width:4; stroke-opacity:1; fill:none" points="255.607,592.37 274.504,592.37 "></polyline>
<polyline clip-path="url(#clip500)" style="stroke:#000000; stroke-linecap:round; stroke-linejoin:round; stroke-width:4; stroke-opacity:1; fill:none" points="255.607,286.474 274.504,286.474 "></polyline>
<path clip-path="url(#clip500)" d="M114.26 1204.61 L143.936 1204.61 L143.936 1208.55 L114.26 1208.55 L114.26 1204.61 Z" fill="#000000" fill-rule="nonzero" fill-opacity="1"></path><path clip-path="url(#clip500)" d="M164.028 1189.96 Q160.417 1189.96 158.589 1193.53 Q156.783 1197.07 156.783 1204.2 Q156.783 1211.3 158.589 1214.87 Q160.417 1218.41 164.028 1218.41 Q167.663 1218.41 169.468 1214.87 Q171.297 1211.3 171.297 1204.2 Q171.297 1197.07 169.468 1193.53 Q167.663 1189.96 164.028 1189.96 M164.028 1186.26 Q169.839 1186.26 172.894 1190.86 Q175.973 1195.45 175.973 1204.2 Q175.973 1212.92 172.894 1217.53 Q169.839 1222.11 164.028 1222.11 Q158.218 1222.11 155.14 1217.53 Q152.084 1212.92 152.084 1204.2 Q152.084 1195.45 155.14 1190.86 Q158.218 1186.26 164.028 1186.26 Z" fill="#000000" fill-rule="nonzero" fill-opacity="1"></path><path clip-path="url(#clip500)" d="M184.19 1215.56 L189.075 1215.56 L189.075 1221.44 L184.19 1221.44 L184.19 1215.56 Z" fill="#000000" fill-rule="nonzero" fill-opacity="1"></path><path clip-path="url(#clip500)" d="M203.287 1217.51 L219.607 1217.51 L219.607 1221.44 L197.662 1221.44 L197.662 1217.51 Q200.325 1214.75 204.908 1210.12 Q209.514 1205.47 210.695 1204.13 Q212.94 1201.6 213.82 1199.87 Q214.723 1198.11 214.723 1196.42 Q214.723 1193.66 212.778 1191.93 Q210.857 1190.19 207.755 1190.19 Q205.556 1190.19 203.102 1190.96 Q200.672 1191.72 197.894 1193.27 L197.894 1188.55 Q200.718 1187.41 203.172 1186.84 Q205.625 1186.26 207.662 1186.26 Q213.033 1186.26 216.227 1188.94 Q219.422 1191.63 219.422 1196.12 Q219.422 1198.25 218.611 1200.17 Q217.824 1202.07 215.718 1204.66 Q215.139 1205.33 212.037 1208.55 Q208.936 1211.74 203.287 1217.51 Z" fill="#000000" fill-rule="nonzero" fill-opacity="1"></path><path clip-path="url(#clip500)" d="M162.431 884.065 Q158.82 884.065 156.991 887.629 Q155.186 891.171 155.186 898.301 Q155.186 905.407 156.991 908.972 Q158.82 912.514 162.431 912.514 Q166.065 912.514 167.871 908.972 Q169.7 905.407 169.7 898.301 Q169.7 891.171 167.871 887.629 Q166.065 884.065 162.431 884.065 M162.431 880.361 Q168.241 880.361 171.297 884.967 Q174.376 889.551 174.376 898.301 Q174.376 907.028 171.297 911.634 Q168.241 916.217 162.431 916.217 Q156.621 916.217 153.542 911.634 Q150.487 907.028 150.487 898.301 Q150.487 889.551 153.542 884.967 Q156.621 880.361 162.431 880.361 Z" fill="#000000" fill-rule="nonzero" fill-opacity="1"></path><path clip-path="url(#clip500)" d="M182.593 909.666 L187.477 909.666 L187.477 915.546 L182.593 915.546 L182.593 909.666 Z" fill="#000000" fill-rule="nonzero" fill-opacity="1"></path><path clip-path="url(#clip500)" d="M207.662 884.065 Q204.051 884.065 202.223 887.629 Q200.417 891.171 200.417 898.301 Q200.417 905.407 202.223 908.972 Q204.051 912.514 207.662 912.514 Q211.297 912.514 213.102 908.972 Q214.931 905.407 214.931 898.301 Q214.931 891.171 213.102 887.629 Q211.297 884.065 207.662 884.065 M207.662 880.361 Q213.473 880.361 216.528 884.967 Q219.607 889.551 219.607 898.301 Q219.607 907.028 216.528 911.634 Q213.473 916.217 207.662 916.217 Q201.852 916.217 198.774 911.634 Q195.718 907.028 195.718 898.301 Q195.718 889.551 198.774 884.967 Q201.852 880.361 207.662 880.361 Z" fill="#000000" fill-rule="nonzero" fill-opacity="1"></path><path clip-path="url(#clip500)" d="M164.028 578.169 Q160.417 578.169 158.589 581.734 Q156.783 585.275 156.783 592.405 Q156.783 599.511 158.589 603.076 Q160.417 606.618 164.028 606.618 Q167.663 606.618 169.468 603.076 Q171.297 599.511 171.297 592.405 Q171.297 585.275 169.468 581.734 Q167.663 578.169 164.028 578.169 M164.028 574.465 Q169.839 574.465 172.894 579.072 Q175.973 583.655 175.973 592.405 Q175.973 601.132 172.894 605.738 Q169.839 610.321 164.028 610.321 Q158.218 610.321 155.14 605.738 Q152.084 601.132 152.084 592.405 Q152.084 583.655 155.14 579.072 Q158.218 574.465 164.028 574.465 Z" fill="#000000" fill-rule="nonzero" fill-opacity="1"></path><path clip-path="url(#clip500)" d="M184.19 603.771 L189.075 603.771 L189.075 609.65 L184.19 609.65 L184.19 603.771 Z" fill="#000000" fill-rule="nonzero" fill-opacity="1"></path><path clip-path="url(#clip500)" d="M203.287 605.715 L219.607 605.715 L219.607 609.65 L197.662 609.65 L197.662 605.715 Q200.325 602.96 204.908 598.331 Q209.514 593.678 210.695 592.335 Q212.94 589.812 213.82 588.076 Q214.723 586.317 214.723 584.627 Q214.723 581.872 212.778 580.136 Q210.857 578.4 207.755 578.4 Q205.556 578.4 203.102 579.164 Q200.672 579.928 197.894 581.479 L197.894 576.757 Q200.718 575.623 203.172 575.044 Q205.625 574.465 207.662 574.465 Q213.033 574.465 216.227 577.15 Q219.422 579.835 219.422 584.326 Q219.422 586.456 218.611 588.377 Q217.824 590.275 215.718 592.868 Q215.139 593.539 212.037 596.757 Q208.936 599.951 203.287 605.715 Z" fill="#000000" fill-rule="nonzero" fill-opacity="1"></path><path clip-path="url(#clip500)" d="M161.945 272.273 Q158.334 272.273 156.505 275.838 Q154.7 279.379 154.7 286.509 Q154.7 293.615 156.505 297.18 Q158.334 300.722 161.945 300.722 Q165.579 300.722 167.385 297.18 Q169.214 293.615 169.214 286.509 Q169.214 279.379 167.385 275.838 Q165.579 272.273 161.945 272.273 M161.945 268.569 Q167.755 268.569 170.811 273.176 Q173.889 277.759 173.889 286.509 Q173.889 295.236 170.811 299.842 Q167.755 304.426 161.945 304.426 Q156.135 304.426 153.056 299.842 Q150.001 295.236 150.001 286.509 Q150.001 277.759 153.056 273.176 Q156.135 268.569 161.945 268.569 Z" fill="#000000" fill-rule="nonzero" fill-opacity="1"></path><path clip-path="url(#clip500)" d="M182.107 297.875 L186.991 297.875 L186.991 303.754 L182.107 303.754 L182.107 297.875 Z" fill="#000000" fill-rule="nonzero" fill-opacity="1"></path><path clip-path="url(#clip500)" d="M210.024 273.268 L198.218 291.717 L210.024 291.717 L210.024 273.268 M208.797 269.194 L214.676 269.194 L214.676 291.717 L219.607 291.717 L219.607 295.606 L214.676 295.606 L214.676 303.754 L210.024 303.754 L210.024 295.606 L194.422 295.606 L194.422 291.092 L208.797 269.194 Z" fill="#000000" fill-rule="nonzero" fill-opacity="1"></path><path clip-path="url(#clip500)" d="M21.7677 986.975 L58.7206 986.975 L58.7206 979.209 Q58.7206 969.374 54.2646 964.822 Q49.8086 960.239 40.1964 960.239 Q30.6479 960.239 26.2237 964.822 Q21.7677 969.374 21.7677 979.209 L21.7677 986.975 M16.4842 993.404 L16.4842 980.196 Q16.4842 966.382 22.2451 959.921 Q27.9743 953.46 40.1964 953.46 Q52.4822 953.46 58.2432 959.953 Q64.0042 966.446 64.0042 980.196 L64.0042 993.404 L16.4842 993.404 Z" fill="#000000" fill-rule="nonzero" fill-opacity="1"></path><path clip-path="url(#clip500)" d="M28.3562 943.465 L28.3562 937.609 L64.0042 937.609 L64.0042 943.465 L28.3562 943.465 M14.479 943.465 L14.479 937.609 L21.895 937.609 L21.895 943.465 L14.479 943.465 Z" fill="#000000" fill-rule="nonzero" fill-opacity="1"></path><path clip-path="url(#clip500)" d="M29.4065 902.629 L34.9447 902.629 Q33.6716 905.112 33.035 907.786 Q32.3984 910.459 32.3984 913.324 Q32.3984 917.684 33.7352 919.88 Q35.072 922.045 37.7456 922.045 Q39.7826 922.045 40.9603 920.485 Q42.1061 918.926 43.1565 914.215 L43.6021 912.21 Q44.9389 905.971 47.3897 903.361 Q49.8086 900.72 54.1691 900.72 Q59.1344 900.72 62.0308 904.666 Q64.9272 908.581 64.9272 915.456 Q64.9272 918.321 64.3543 921.44 Q63.8132 924.527 62.6992 927.965 L56.6518 927.965 Q58.3387 924.718 59.198 921.567 Q60.0256 918.416 60.0256 915.329 Q60.0256 911.191 58.6251 908.963 Q57.1929 906.735 54.6147 906.735 Q52.2276 906.735 50.9545 908.359 Q49.6813 909.95 48.5037 915.393 L48.0262 917.43 Q46.8804 922.872 44.5251 925.291 Q42.138 927.71 38.0002 927.71 Q32.9713 927.71 30.2341 924.145 Q27.4968 920.581 27.4968 914.024 Q27.4968 910.778 27.9743 907.913 Q28.4517 905.048 29.4065 902.629 Z" fill="#000000" fill-rule="nonzero" fill-opacity="1"></path><path clip-path="url(#clip500)" d="M58.657 885.728 L77.5631 885.728 L77.5631 891.617 L28.3562 891.617 L28.3562 885.728 L33.7671 885.728 Q30.5842 883.882 29.0564 881.081 Q27.4968 878.249 27.4968 874.334 Q27.4968 867.841 32.6531 863.799 Q37.8093 859.725 46.212 859.725 Q54.6147 859.725 59.771 863.799 Q64.9272 867.841 64.9272 874.334 Q64.9272 878.249 63.3994 881.081 Q61.8398 883.882 58.657 885.728 M46.212 865.804 Q39.7508 865.804 36.0905 868.477 Q32.3984 871.119 32.3984 875.766 Q32.3984 880.413 36.0905 883.087 Q39.7508 885.728 46.212 885.728 Q52.6732 885.728 56.3653 883.087 Q60.0256 880.413 60.0256 875.766 Q60.0256 871.119 56.3653 868.477 Q52.6732 865.804 46.212 865.804 Z" fill="#000000" fill-rule="nonzero" fill-opacity="1"></path><path clip-path="url(#clip500)" d="M14.479 850.017 L14.479 844.16 L64.0042 844.16 L64.0042 850.017 L14.479 850.017 Z" fill="#000000" fill-rule="nonzero" fill-opacity="1"></path><path clip-path="url(#clip500)" d="M46.0847 815.706 Q46.0847 822.803 47.7079 825.541 Q49.3312 828.278 53.2461 828.278 Q56.3653 828.278 58.2114 826.241 Q60.0256 824.172 60.0256 820.639 Q60.0256 815.769 56.5881 812.841 Q53.1188 809.881 47.3897 809.881 L46.0847 809.881 L46.0847 815.706 M43.6657 804.025 L64.0042 804.025 L64.0042 809.881 L58.5933 809.881 Q61.8398 811.886 63.3994 814.878 Q64.9272 817.87 64.9272 822.199 Q64.9272 827.673 61.8716 830.92 Q58.7843 834.134 53.6281 834.134 Q47.6125 834.134 44.5569 830.124 Q41.5014 826.082 41.5014 818.093 L41.5014 809.881 L40.9285 809.881 Q36.8862 809.881 34.6901 812.555 Q32.4621 815.196 32.4621 820.003 Q32.4621 823.058 33.1941 825.954 Q33.9262 828.851 35.3903 831.524 L29.9795 831.524 Q28.7381 828.31 28.1334 825.286 Q27.4968 822.262 27.4968 819.398 Q27.4968 811.663 31.5072 807.844 Q35.5176 804.025 43.6657 804.025 Z" fill="#000000" fill-rule="nonzero" fill-opacity="1"></path><path clip-path="url(#clip500)" d="M29.7248 766.308 L35.1993 766.308 Q33.8307 768.79 33.1623 771.305 Q32.4621 773.787 32.4621 776.334 Q32.4621 782.031 36.0905 785.182 Q39.6872 788.333 46.212 788.333 Q52.7369 788.333 56.3653 785.182 Q59.9619 782.031 59.9619 776.334 Q59.9619 773.787 59.2935 771.305 Q58.5933 768.79 57.2247 766.308 L62.6355 766.308 Q63.7814 768.759 64.3543 771.4 Q64.9272 774.01 64.9272 776.97 Q64.9272 785.023 59.8664 789.765 Q54.8057 794.508 46.212 794.508 Q37.491 794.508 32.4939 789.734 Q27.4968 784.927 27.4968 776.588 Q27.4968 773.883 28.0697 771.305 Q28.6108 768.727 29.7248 766.308 Z" fill="#000000" fill-rule="nonzero" fill-opacity="1"></path><path clip-path="url(#clip500)" d="M44.7161 725.631 L47.5806 725.631 L47.5806 752.558 Q53.6281 752.176 56.8109 748.929 Q59.9619 745.651 59.9619 739.826 Q59.9619 736.453 59.1344 733.302 Q58.3069 730.119 56.6518 727 L62.1899 727 Q63.5267 730.151 64.227 733.461 Q64.9272 736.771 64.9272 740.177 Q64.9272 748.707 59.9619 753.704 Q54.9967 758.669 46.5303 758.669 Q37.7774 758.669 32.6531 753.958 Q27.4968 749.216 27.4968 741.195 Q27.4968 734.002 32.1438 729.832 Q36.7589 725.631 44.7161 725.631 M42.9973 731.487 Q38.1912 731.551 35.3266 734.193 Q32.4621 736.803 32.4621 741.131 Q32.4621 746.033 35.2312 748.993 Q38.0002 751.921 43.0292 752.367 L42.9973 731.487 Z" fill="#000000" fill-rule="nonzero" fill-opacity="1"></path><path clip-path="url(#clip500)" d="M35.1993 688.264 Q31.2526 686.068 29.3747 683.013 Q27.4968 679.957 27.4968 675.819 Q27.4968 670.249 31.4117 667.226 Q35.2948 664.202 42.4881 664.202 L64.0042 664.202 L64.0042 670.09 L42.679 670.09 Q37.5546 670.09 35.072 671.904 Q32.5894 673.719 32.5894 677.443 Q32.5894 681.994 35.6131 684.636 Q38.6368 687.278 43.8567 687.278 L64.0042 687.278 L64.0042 693.166 L42.679 693.166 Q37.5228 693.166 35.072 694.98 Q32.5894 696.794 32.5894 700.582 Q32.5894 705.07 35.6449 707.711 Q38.6686 710.353 43.8567 710.353 L64.0042 710.353 L64.0042 716.242 L28.3562 716.242 L28.3562 710.353 L33.8944 710.353 Q30.616 708.348 29.0564 705.547 Q27.4968 702.746 27.4968 698.895 Q27.4968 695.012 29.4702 692.306 Q31.4436 689.569 35.1993 688.264 Z" fill="#000000" fill-rule="nonzero" fill-opacity="1"></path><path clip-path="url(#clip500)" d="M44.7161 622.029 L47.5806 622.029 L47.5806 648.956 Q53.6281 648.574 56.8109 645.328 Q59.9619 642.049 59.9619 636.225 Q59.9619 632.851 59.1344 629.7 Q58.3069 626.517 56.6518 623.398 L62.1899 623.398 Q63.5267 626.549 64.227 629.859 Q64.9272 633.169 64.9272 636.575 Q64.9272 645.105 59.9619 650.102 Q54.9967 655.067 46.5303 655.067 Q37.7774 655.067 32.6531 650.356 Q27.4968 645.614 27.4968 637.593 Q27.4968 630.4 32.1438 626.23 Q36.7589 622.029 44.7161 622.029 M42.9973 627.886 Q38.1912 627.949 35.3266 630.591 Q32.4621 633.201 32.4621 637.53 Q32.4621 642.431 35.2312 645.391 Q38.0002 648.319 43.0292 648.765 L42.9973 627.886 Z" fill="#000000" fill-rule="nonzero" fill-opacity="1"></path><path clip-path="url(#clip500)" d="M42.4881 582.784 L64.0042 582.784 L64.0042 588.641 L42.679 588.641 Q37.6183 588.641 35.1038 590.614 Q32.5894 592.588 32.5894 596.534 Q32.5894 601.277 35.6131 604.014 Q38.6368 606.751 43.8567 606.751 L64.0042 606.751 L64.0042 612.64 L28.3562 612.64 L28.3562 606.751 L33.8944 606.751 Q30.6797 604.651 29.0883 601.818 Q27.4968 598.953 27.4968 595.229 Q27.4968 589.087 31.3163 585.935 Q35.1038 582.784 42.4881 582.784 Z" fill="#000000" fill-rule="nonzero" fill-opacity="1"></path><path clip-path="url(#clip500)" d="M18.2347 565.311 L28.3562 565.311 L28.3562 553.248 L32.9077 553.248 L32.9077 565.311 L52.2594 565.311 Q56.6199 565.311 57.8613 564.133 Q59.1026 562.923 59.1026 559.263 L59.1026 553.248 L64.0042 553.248 L64.0042 559.263 Q64.0042 566.043 61.4897 568.621 Q58.9434 571.199 52.2594 571.199 L32.9077 571.199 L32.9077 575.496 L28.3562 575.496 L28.3562 571.199 L18.2347 571.199 L18.2347 565.311 Z" fill="#000000" fill-rule="nonzero" fill-opacity="1"></path><path clip-path="url(#clip500)" d="M829.274 12.096 L864.03 12.096 L864.03 18.9825 L837.456 18.9825 L837.456 36.8065 L861.438 36.8065 L861.438 43.6931 L837.456 43.6931 L837.456 72.576 L829.274 72.576 L829.274 12.096 Z" fill="#000000" fill-rule="nonzero" fill-opacity="1"></path><path clip-path="url(#clip500)" d="M891.293 32.4315 Q885.298 32.4315 881.814 37.1306 Q878.33 41.7891 878.33 49.9314 Q878.33 58.0738 881.773 62.7728 Q885.257 67.4314 891.293 67.4314 Q897.248 67.4314 900.732 62.7323 Q904.215 58.0333 904.215 49.9314 Q904.215 41.8701 900.732 37.1711 Q897.248 32.4315 891.293 32.4315 M891.293 26.1121 Q901.015 26.1121 906.565 32.4315 Q912.115 38.7509 912.115 49.9314 Q912.115 61.0714 906.565 67.4314 Q901.015 73.7508 891.293 73.7508 Q881.53 73.7508 875.981 67.4314 Q870.471 61.0714 870.471 49.9314 Q870.471 38.7509 875.981 32.4315 Q881.53 26.1121 891.293 26.1121 Z" fill="#000000" fill-rule="nonzero" fill-opacity="1"></path><path clip-path="url(#clip500)" d="M950.76 34.1734 Q949.504 33.4443 948.006 33.1202 Q946.547 32.7556 944.765 32.7556 Q938.445 32.7556 935.043 36.8875 Q931.68 40.9789 931.68 48.6757 L931.68 72.576 L924.186 72.576 L924.186 27.2059 L931.68 27.2059 L931.68 34.2544 Q934.03 30.1225 937.797 28.1376 Q941.565 26.1121 946.952 26.1121 Q947.722 26.1121 948.654 26.2337 Q949.585 26.3147 950.72 26.5172 L950.76 34.1734 Z" fill="#000000" fill-rule="nonzero" fill-opacity="1"></path><path clip-path="url(#clip500)" d="M989.406 28.9478 L989.406 35.9153 Q986.246 34.1734 983.046 33.3227 Q979.886 32.4315 976.645 32.4315 Q969.394 32.4315 965.384 37.0496 Q961.374 41.6271 961.374 49.9314 Q961.374 58.2358 965.384 62.8538 Q969.394 67.4314 976.645 67.4314 Q979.886 67.4314 983.046 66.5807 Q986.246 65.6895 989.406 63.9476 L989.406 70.8341 Q986.287 72.2924 982.924 73.0216 Q979.603 73.7508 975.835 73.7508 Q965.587 73.7508 959.551 67.3098 Q953.515 60.8689 953.515 49.9314 Q953.515 38.832 959.591 32.472 Q965.708 26.1121 976.321 26.1121 Q979.765 26.1121 983.046 26.8413 Q986.327 27.5299 989.406 28.9478 Z" fill="#000000" fill-rule="nonzero" fill-opacity="1"></path><path clip-path="url(#clip500)" d="M1041.18 48.0275 L1041.18 51.6733 L1006.91 51.6733 Q1007.39 59.3701 1011.52 63.421 Q1015.7 67.4314 1023.11 67.4314 Q1027.4 67.4314 1031.41 66.3781 Q1035.46 65.3249 1039.43 63.2184 L1039.43 70.267 Q1035.42 71.9684 1031.21 72.8596 Q1027 73.7508 1022.66 73.7508 Q1011.81 73.7508 1005.45 67.4314 Q999.128 61.1119 999.128 50.3365 Q999.128 39.1965 1005.12 32.6746 Q1011.16 26.1121 1021.37 26.1121 Q1030.52 26.1121 1035.83 32.0264 Q1041.18 37.9003 1041.18 48.0275 M1033.72 45.84 Q1033.64 39.7232 1030.28 36.0774 Q1026.96 32.4315 1021.45 32.4315 Q1015.21 32.4315 1011.44 35.9558 Q1007.72 39.4801 1007.15 45.8805 L1033.72 45.84 Z" fill="#000000" fill-rule="nonzero" fill-opacity="1"></path><path clip-path="url(#clip500)" d="M1083.27 34.0924 L1083.27 9.54393 L1090.72 9.54393 L1090.72 72.576 L1083.27 72.576 L1083.27 65.7705 Q1080.92 69.8214 1077.31 71.8063 Q1073.75 73.7508 1068.72 73.7508 Q1060.5 73.7508 1055.31 67.1883 Q1050.17 60.6258 1050.17 49.9314 Q1050.17 39.2371 1055.31 32.6746 Q1060.5 26.1121 1068.72 26.1121 Q1073.75 26.1121 1077.31 28.0971 Q1080.92 30.0415 1083.27 34.0924 M1057.87 49.9314 Q1057.87 58.1548 1061.23 62.8538 Q1064.63 67.5124 1070.55 67.5124 Q1076.46 67.5124 1079.86 62.8538 Q1083.27 58.1548 1083.27 49.9314 Q1083.27 41.7081 1079.86 37.0496 Q1076.46 32.3505 1070.55 32.3505 Q1064.63 32.3505 1061.23 37.0496 Q1057.87 41.7081 1057.87 49.9314 Z" fill="#000000" fill-rule="nonzero" fill-opacity="1"></path><path clip-path="url(#clip500)" d="M1169.02 14.0809 L1169.02 22.0612 Q1164.36 19.8332 1160.23 18.7395 Q1156.1 17.6457 1152.25 17.6457 Q1145.57 17.6457 1141.92 20.2383 Q1138.32 22.8309 1138.32 27.611 Q1138.32 31.6214 1140.71 33.6873 Q1143.14 35.7128 1149.86 36.9686 L1154.8 37.9813 Q1163.96 39.7232 1168.29 44.1387 Q1172.67 48.5136 1172.67 55.8863 Q1172.67 64.6767 1166.75 69.2137 Q1160.88 73.7508 1149.5 73.7508 Q1145.2 73.7508 1140.34 72.7785 Q1135.52 71.8063 1130.34 69.9024 L1130.34 61.4765 Q1135.32 64.2716 1140.1 65.6895 Q1144.88 67.1073 1149.5 67.1073 Q1156.51 67.1073 1160.31 64.3527 Q1164.12 61.598 1164.12 56.4939 Q1164.12 52.0379 1161.37 49.5264 Q1158.65 47.0148 1152.41 45.759 L1147.43 44.7868 Q1138.28 42.9639 1134.19 39.075 Q1130.09 35.1862 1130.09 28.2591 Q1130.09 20.2383 1135.72 15.6203 Q1141.4 11.0023 1151.32 11.0023 Q1155.57 11.0023 1159.99 11.7719 Q1164.4 12.5416 1169.02 14.0809 Z" fill="#000000" fill-rule="nonzero" fill-opacity="1"></path><path clip-path="url(#clip500)" d="M1192.32 65.7705 L1192.32 89.8329 L1184.82 89.8329 L1184.82 27.2059 L1192.32 27.2059 L1192.32 34.0924 Q1194.67 30.0415 1198.23 28.0971 Q1201.84 26.1121 1206.82 26.1121 Q1215.08 26.1121 1220.23 32.6746 Q1225.41 39.2371 1225.41 49.9314 Q1225.41 60.6258 1220.23 67.1883 Q1215.08 73.7508 1206.82 73.7508 Q1201.84 73.7508 1198.23 71.8063 Q1194.67 69.8214 1192.32 65.7705 M1217.67 49.9314 Q1217.67 41.7081 1214.27 37.0496 Q1210.91 32.3505 1204.99 32.3505 Q1199.08 32.3505 1195.68 37.0496 Q1192.32 41.7081 1192.32 49.9314 Q1192.32 58.1548 1195.68 62.8538 Q1199.08 67.5124 1204.99 67.5124 Q1210.91 67.5124 1214.27 62.8538 Q1217.67 58.1548 1217.67 49.9314 Z" fill="#000000" fill-rule="nonzero" fill-opacity="1"></path><path clip-path="url(#clip500)" d="M1264.06 34.1734 Q1262.8 33.4443 1261.3 33.1202 Q1259.84 32.7556 1258.06 32.7556 Q1251.74 32.7556 1248.34 36.8875 Q1244.98 40.9789 1244.98 48.6757 L1244.98 72.576 L1237.48 72.576 L1237.48 27.2059 L1244.98 27.2059 L1244.98 34.2544 Q1247.33 30.1225 1251.09 28.1376 Q1254.86 26.1121 1260.25 26.1121 Q1261.02 26.1121 1261.95 26.2337 Q1262.88 26.3147 1264.02 26.5172 L1264.06 34.1734 Z" fill="#000000" fill-rule="nonzero" fill-opacity="1"></path><path clip-path="url(#clip500)" d="M1271.88 27.2059 L1279.33 27.2059 L1279.33 72.576 L1271.88 72.576 L1271.88 27.2059 M1271.88 9.54393 L1279.33 9.54393 L1279.33 18.9825 L1271.88 18.9825 L1271.88 9.54393 Z" fill="#000000" fill-rule="nonzero" fill-opacity="1"></path><path clip-path="url(#clip500)" d="M1332.64 45.1919 L1332.64 72.576 L1325.19 72.576 L1325.19 45.4349 Q1325.19 38.994 1322.67 35.7938 Q1320.16 32.5936 1315.14 32.5936 Q1309.1 32.5936 1305.62 36.4419 Q1302.14 40.2903 1302.14 46.9338 L1302.14 72.576 L1294.64 72.576 L1294.64 27.2059 L1302.14 27.2059 L1302.14 34.2544 Q1304.81 30.163 1308.41 28.1376 Q1312.06 26.1121 1316.8 26.1121 Q1324.62 26.1121 1328.63 30.9732 Q1332.64 35.7938 1332.64 45.1919 Z" fill="#000000" fill-rule="nonzero" fill-opacity="1"></path><path clip-path="url(#clip500)" d="M1377.36 49.3643 Q1377.36 41.2625 1374 36.8065 Q1370.68 32.3505 1364.64 32.3505 Q1358.65 32.3505 1355.28 36.8065 Q1351.96 41.2625 1351.96 49.3643 Q1351.96 57.4256 1355.28 61.8816 Q1358.65 66.3376 1364.64 66.3376 Q1370.68 66.3376 1374 61.8816 Q1377.36 57.4256 1377.36 49.3643 M1384.81 66.9452 Q1384.81 78.5308 1379.67 84.1616 Q1374.53 89.8329 1363.91 89.8329 Q1359.98 89.8329 1356.5 89.2252 Q1353.02 88.6581 1349.73 87.4428 L1349.73 80.1917 Q1353.02 81.9741 1356.22 82.8248 Q1359.42 83.6755 1362.74 83.6755 Q1370.07 83.6755 1373.72 79.8271 Q1377.36 76.0193 1377.36 68.282 L1377.36 64.5957 Q1375.05 68.6061 1371.45 70.5911 Q1367.84 72.576 1362.82 72.576 Q1354.47 72.576 1349.37 66.2161 Q1344.27 59.8562 1344.27 49.3643 Q1344.27 38.832 1349.37 32.472 Q1354.47 26.1121 1362.82 26.1121 Q1367.84 26.1121 1371.45 28.0971 Q1375.05 30.082 1377.36 34.0924 L1377.36 27.2059 L1384.81 27.2059 L1384.81 66.9452 Z" fill="#000000" fill-rule="nonzero" fill-opacity="1"></path><path clip-path="url(#clip500)" d="M1426.86 12.096 L1465.1 12.096 L1465.1 18.9825 L1435.05 18.9825 L1435.05 36.8875 L1463.85 36.8875 L1463.85 43.7741 L1435.05 43.7741 L1435.05 65.6895 L1465.83 65.6895 L1465.83 72.576 L1426.86 72.576 L1426.86 12.096 Z" fill="#000000" fill-rule="nonzero" fill-opacity="1"></path><path clip-path="url(#clip500)" d="M1483.41 49.9314 Q1483.41 58.1548 1486.78 62.8538 Q1490.18 67.5124 1496.09 67.5124 Q1502.01 67.5124 1505.41 62.8538 Q1508.81 58.1548 1508.81 49.9314 Q1508.81 41.7081 1505.41 37.0496 Q1502.01 32.3505 1496.09 32.3505 Q1490.18 32.3505 1486.78 37.0496 Q1483.41 41.7081 1483.41 49.9314 M1508.81 65.7705 Q1506.46 69.8214 1502.86 71.8063 Q1499.29 73.7508 1494.27 73.7508 Q1486.05 73.7508 1480.86 67.1883 Q1475.72 60.6258 1475.72 49.9314 Q1475.72 39.2371 1480.86 32.6746 Q1486.05 26.1121 1494.27 26.1121 Q1499.29 26.1121 1502.86 28.0971 Q1506.46 30.0415 1508.81 34.0924 L1508.81 27.2059 L1516.27 27.2059 L1516.27 89.8329 L1508.81 89.8329 L1508.81 65.7705 Z" fill="#000000" fill-rule="nonzero" fill-opacity="1"></path><path clip-path="url(#clip500)" d="M1530.85 54.671 L1530.85 27.2059 L1538.3 27.2059 L1538.3 54.3874 Q1538.3 60.8284 1540.81 64.0691 Q1543.33 67.2693 1548.35 67.2693 Q1554.39 67.2693 1557.87 63.421 Q1561.39 59.5726 1561.39 52.9291 L1561.39 27.2059 L1568.85 27.2059 L1568.85 72.576 L1561.39 72.576 L1561.39 65.6084 Q1558.68 69.7404 1555.07 71.7658 Q1551.51 73.7508 1546.77 73.7508 Q1538.95 73.7508 1534.9 68.8897 Q1530.85 64.0286 1530.85 54.671 M1549.61 26.1121 L1549.61 26.1121 Z" fill="#000000" fill-rule="nonzero" fill-opacity="1"></path><path clip-path="url(#clip500)" d="M1604.82 49.7694 Q1595.79 49.7694 1592.3 51.8354 Q1588.82 53.9013 1588.82 58.8839 Q1588.82 62.8538 1591.41 65.2034 Q1594.04 67.5124 1598.54 67.5124 Q1604.74 67.5124 1608.47 63.1374 Q1612.23 58.7219 1612.23 51.4303 L1612.23 49.7694 L1604.82 49.7694 M1619.69 46.6907 L1619.69 72.576 L1612.23 72.576 L1612.23 65.6895 Q1609.68 69.8214 1605.87 71.8063 Q1602.06 73.7508 1596.56 73.7508 Q1589.59 73.7508 1585.46 69.8619 Q1581.36 65.9325 1581.36 59.3701 Q1581.36 51.7138 1586.47 47.825 Q1591.61 43.9361 1601.78 43.9361 L1612.23 43.9361 L1612.23 43.2069 Q1612.23 38.0623 1608.83 35.2672 Q1605.47 32.4315 1599.35 32.4315 Q1595.46 32.4315 1591.78 33.3632 Q1588.09 34.295 1584.69 36.1584 L1584.69 29.2718 Q1588.78 27.692 1592.63 26.9223 Q1596.47 26.1121 1600.12 26.1121 Q1609.96 26.1121 1614.82 31.2163 Q1619.69 36.3204 1619.69 46.6907 Z" fill="#000000" fill-rule="nonzero" fill-opacity="1"></path><path clip-path="url(#clip500)" d="M1642.41 14.324 L1642.41 27.2059 L1657.76 27.2059 L1657.76 32.9987 L1642.41 32.9987 L1642.41 57.6282 Q1642.41 63.1779 1643.91 64.7578 Q1645.45 66.3376 1650.11 66.3376 L1657.76 66.3376 L1657.76 72.576 L1650.11 72.576 Q1641.48 72.576 1638.2 69.3758 Q1634.92 66.1351 1634.92 57.6282 L1634.92 32.9987 L1629.45 32.9987 L1629.45 27.2059 L1634.92 27.2059 L1634.92 14.324 L1642.41 14.324 Z" fill="#000000" fill-rule="nonzero" fill-opacity="1"></path><path clip-path="url(#clip500)" d="M1667.57 27.2059 L1675.02 27.2059 L1675.02 72.576 L1667.57 72.576 L1667.57 27.2059 M1667.57 9.54393 L1675.02 9.54393 L1675.02 18.9825 L1667.57 18.9825 L1667.57 9.54393 Z" fill="#000000" fill-rule="nonzero" fill-opacity="1"></path><path clip-path="url(#clip500)" d="M1708.2 32.4315 Q1702.2 32.4315 1698.72 37.1306 Q1695.24 41.7891 1695.24 49.9314 Q1695.24 58.0738 1698.68 62.7728 Q1702.16 67.4314 1708.2 67.4314 Q1714.15 67.4314 1717.64 62.7323 Q1721.12 58.0333 1721.12 49.9314 Q1721.12 41.8701 1717.64 37.1711 Q1714.15 32.4315 1708.2 32.4315 M1708.2 26.1121 Q1717.92 26.1121 1723.47 32.4315 Q1729.02 38.7509 1729.02 49.9314 Q1729.02 61.0714 1723.47 67.4314 Q1717.92 73.7508 1708.2 73.7508 Q1698.44 73.7508 1692.89 67.4314 Q1687.38 61.0714 1687.38 49.9314 Q1687.38 38.7509 1692.89 32.4315 Q1698.44 26.1121 1708.2 26.1121 Z" fill="#000000" fill-rule="nonzero" fill-opacity="1"></path><path clip-path="url(#clip500)" d="M1779.09 45.1919 L1779.09 72.576 L1771.64 72.576 L1771.64 45.4349 Q1771.64 38.994 1769.12 35.7938 Q1766.61 32.5936 1761.59 32.5936 Q1755.55 32.5936 1752.07 36.4419 Q1748.59 40.2903 1748.59 46.9338 L1748.59 72.576 L1741.09 72.576 L1741.09 27.2059 L1748.59 27.2059 L1748.59 34.2544 Q1751.26 30.163 1754.86 28.1376 Q1758.51 26.1121 1763.25 26.1121 Q1771.07 26.1121 1775.08 30.9732 Q1779.09 35.7938 1779.09 45.1919 Z" fill="#000000" fill-rule="nonzero" fill-opacity="1"></path><polyline clip-path="url(#clip502)" style="stroke:#009af9; stroke-linecap:round; stroke-linejoin:round; stroke-width:4; stroke-opacity:1; fill:none" points="314.96,898.266 316.939,898.266 318.917,898.266 320.895,898.266 322.874,898.265 324.852,898.264 326.831,898.263 328.809,898.261 330.788,898.257 332.766,898.253 334.745,898.248 336.723,898.241 338.701,898.232 340.68,898.222 342.658,898.21 344.637,898.197 346.615,898.181 348.594,898.162 350.572,898.142 352.55,898.118 354.529,898.092 356.507,898.063 358.486,898.031 360.464,897.996 362.443,897.958 364.421,897.916 366.4,897.871 368.378,897.821 370.356,897.768 372.335,897.711 374.313,897.65 376.292,897.584 378.27,897.514 380.249,897.439 382.227,897.36 384.206,897.276 386.184,897.186 388.162,897.092 390.141,896.992 392.119,896.887 394.098,896.776 396.076,896.66 398.055,896.538 400.033,896.41 402.012,896.275 403.99,896.135 405.968,895.988 407.947,895.835 409.925,895.676 411.904,895.509 413.882,895.336 415.861,895.156 417.839,894.969 419.818,894.775 421.796,894.573 423.774,894.364 425.753,894.148 427.731,893.924 429.71,893.692 431.688,893.452 433.667,893.205 435.645,892.949 437.624,892.686 439.602,892.414 441.58,892.133 443.559,891.845 445.537,891.548 447.516,891.242 449.494,890.927 451.473,890.604 453.451,890.272 455.43,889.931 457.408,889.581 459.386,889.221 461.365,888.853 463.343,888.475 465.322,888.088 467.3,887.691 469.279,887.285 471.257,886.869 473.235,886.444 475.214,886.009 477.192,885.564 479.171,885.109 481.149,884.644 483.128,884.17 485.106,883.685 487.085,883.19 489.063,882.685 491.041,882.17 493.02,881.645 494.998,881.109 496.977,880.563 498.955,880.007 500.934,879.44 502.912,878.863 504.891,878.276 506.869,877.678 508.847,877.069 510.826,876.45 512.804,875.82 514.783,875.18 516.761,874.529 518.74,873.867 520.718,873.195 522.697,872.512 524.675,871.818 526.653,871.114 528.632,870.399 530.61,869.673 532.589,868.937 534.567,868.19 536.546,867.432 538.524,866.663 540.503,865.884 542.481,865.094 544.459,864.294 546.438,863.482 548.416,862.661 550.395,861.828 552.373,860.985 554.352,860.132 556.33,859.268 558.309,858.393 560.287,857.508 562.265,856.612 564.244,855.707 566.222,854.79 568.201,853.864 570.179,852.927 572.158,851.98 574.136,851.023 576.115,850.056 578.093,849.078 580.071,848.091 582.05,847.094 584.028,846.087 586.007,845.07 587.985,844.043 589.964,843.007 591.942,841.961 593.92,840.906 595.899,839.841 597.877,838.766 599.856,837.683 601.834,836.59 603.813,835.488 605.791,834.378 607.77,833.258 609.748,832.129 611.726,830.992 613.705,829.846 615.683,828.692 617.662,827.529 619.64,826.357 621.619,825.178 623.597,823.991 625.576,822.795 627.554,821.592 629.532,820.381 631.511,819.162 633.489,817.936 635.468,816.702 637.446,815.461 639.425,814.213 641.403,812.958 643.382,811.696 645.36,810.428 647.338,809.153 649.317,807.871 651.295,806.583 653.274,805.289 655.252,803.989 657.231,802.683 659.209,801.372 661.188,800.055 663.166,798.732 665.144,797.404 667.123,796.072 669.101,794.734 671.08,793.392 673.058,792.045 675.037,790.693 677.015,789.338 678.994,787.978 680.972,786.614 682.95,785.247 684.929,783.876 686.907,782.502 688.886,781.124 690.864,779.744 692.843,778.361 694.821,776.975 696.8,775.587 698.778,774.196 700.756,772.804 702.735,771.409 704.713,770.013 706.692,768.616 708.67,767.217 710.649,765.817 712.627,764.417 714.605,763.015 716.584,761.613 718.562,760.211 720.541,758.809 722.519,757.407 724.498,756.005 726.476,754.604 728.455,753.204 730.433,751.805 732.411,750.407 734.39,749.011 736.368,747.616 738.347,746.223 740.325,744.832 742.304,743.443 744.282,742.057 746.261,740.674 748.239,739.294 750.217,737.917 752.196,736.543 754.174,735.173 756.153,733.807 758.131,732.445 760.11,731.088 762.088,729.735 764.067,728.386 766.045,727.043 768.023,725.705 770.002,724.373 771.98,723.047 773.959,721.726 775.937,720.412 777.916,719.104 779.894,717.802 781.873,716.508 783.851,715.221 785.829,713.941 787.808,712.669 789.786,711.405 791.765,710.149 793.743,708.901 795.722,707.662 797.7,706.432 799.679,705.211 801.657,703.999 803.635,702.796 805.614,701.604 807.592,700.421 809.571,699.249 811.549,698.087 813.528,696.936 815.506,695.796 817.484,694.667 819.463,693.55 821.441,692.444 823.42,691.35 825.398,690.269 827.377,689.2 829.355,688.143 831.334,687.1 833.312,686.069 835.29,685.052 837.269,684.049 839.247,683.059 841.226,682.084 843.204,681.122 845.183,680.176 847.161,679.244 849.14,678.327 851.118,677.425 853.096,676.539 855.075,675.668 857.053,674.813 859.032,673.975 861.01,673.153 862.989,672.347 864.967,671.558 866.946,670.787 868.924,670.032 870.902,669.295 872.881,668.576 874.859,667.875 876.838,667.191 878.816,666.526 880.795,665.88 882.773,665.253 884.752,664.644 886.73,664.055 888.708,663.485 890.687,662.934 892.665,662.404 894.644,661.893 896.622,661.403 898.601,660.933 900.579,660.484 902.558,660.056 904.536,659.648 906.514,659.262 908.493,658.897 910.471,658.554 912.45,658.233 914.428,657.933 916.407,657.656 918.385,657.401 920.364,657.168 922.342,656.959 924.32,656.772 926.299,656.608 928.277,656.467 930.256,656.35 932.234,656.256 934.213,656.186 936.191,656.14 938.169,656.118 940.148,656.12 942.126,656.146 944.105,656.197 946.083,656.273 948.062,656.373 950.04,656.498 952.019,656.649 953.997,656.824 955.975,657.025 957.954,657.252 959.932,657.504 961.911,657.782 963.889,658.085 965.868,658.415 967.846,658.771 969.825,659.153 971.803,659.561 973.781,659.996 975.76,660.458 977.738,660.946 979.717,661.461 981.695,662.003 983.674,662.572 985.652,663.168 987.631,663.791 989.609,664.441 991.587,665.119 993.566,665.824 995.544,666.557 997.523,667.317 999.501,668.105 1001.48,668.921 1003.46,669.765 1005.44,670.636 1007.41,671.536 1009.39,672.463 1011.37,673.418 1013.35,674.402 1015.33,675.413 1017.31,676.453 1019.29,677.521 1021.26,678.617 1023.24,679.742 1025.22,680.895 1027.2,682.076 1029.18,683.285 1031.16,684.523 1033.13,685.79 1035.11,687.084 1037.09,688.408 1039.07,689.759 1041.05,691.139 1043.03,692.548 1045.01,693.985 1046.98,695.45 1048.96,696.944 1050.94,698.466 1052.92,700.016 1054.9,701.595 1056.88,703.202 1058.85,704.838 1060.83,706.501 1062.81,708.193 1064.79,709.913 1066.77,711.661 1068.75,713.438 1070.73,715.242 1072.7,717.074 1074.68,718.934 1076.66,720.822 1078.64,722.738 1080.62,724.681 1082.6,726.652 1084.57,728.651 1086.55,730.677 1088.53,732.73 1090.51,734.811 1092.49,736.919 1094.47,739.054 1096.44,741.216 1098.42,743.404 1100.4,745.62 1102.38,747.862 1104.36,750.131 1106.34,752.426 1108.32,754.747 1110.29,757.095 1112.27,759.469 1114.25,761.868 1116.23,764.294 1118.21,766.744 1120.19,769.221 1122.16,771.722 1124.14,774.249 1126.12,776.801 1128.1,779.378 1130.08,781.979 1132.06,784.605 1134.04,787.255 1136.01,789.929 1137.99,792.627 1139.97,795.349 1141.95,798.095 1143.93,800.864 1145.91,803.656 1147.88,806.471 1149.86,809.309 1151.84,812.169 1153.82,815.052 1155.8,817.957 1157.78,820.884 1159.76,823.833 1161.73,826.803 1163.71,829.794 1165.69,832.807 1167.67,835.84 1169.65,838.894 1171.63,841.968 1173.6,845.062 1175.58,848.177 1177.56,851.31 1179.54,854.463 1181.52,857.635 1183.5,860.826 1185.47,864.035 1187.45,867.263 1189.43,870.508 1191.41,873.771 1193.39,877.052 1195.37,880.35 1197.35,883.664 1199.32,886.996 1201.3,890.343 1203.28,893.706 1205.26,897.086 1207.24,900.48 1209.22,903.89 1211.19,907.314 1213.17,910.753 1215.15,914.206 1217.13,917.672 1219.11,921.153 1221.09,924.646 1223.07,928.152 1225.04,931.671 1227.02,935.202 1229,938.745 1230.98,942.299 1232.96,945.865 1234.94,949.441 1236.91,953.028 1238.89,956.625 1240.87,960.232 1242.85,963.848 1244.83,967.473 1246.81,971.107 1248.78,974.75 1250.76,978.4 1252.74,982.058 1254.72,985.724 1256.7,989.396 1258.68,993.075 1260.66,996.76 1262.63,1000.45 1264.61,1004.15 1266.59,1007.85 1268.57,1011.55 1270.55,1015.26 1272.53,1018.98 1274.5,1022.7 1276.48,1026.42 1278.46,1030.14 1280.44,1033.86 1282.42,1037.59 1284.4,1041.32 1286.38,1045.05 1288.35,1048.78 1290.33,1052.51 1292.31,1056.24 1294.29,1059.98 1296.27,1063.71 1298.25,1067.43 1300.22,1071.16 1302.2,1074.89 1304.18,1078.61 1306.16,1082.33 1308.14,1086.04 1310.12,1089.75 1312.1,1093.46 1314.07,1097.16 1316.05,1100.86 1318.03,1104.56 1320.01,1108.24 1321.99,1111.92 1323.97,1115.6 1325.94,1119.26 1327.92,1122.92 1329.9,1126.57 1331.88,1130.22 1333.86,1133.85 1335.84,1137.47 1337.81,1141.09 1339.79,1144.69 1341.77,1148.29 1343.75,1151.87 1345.73,1155.44 1347.71,1159 1349.69,1162.55 1351.66,1166.08 1353.64,1169.61 1355.62,1173.11 1357.6,1176.61 1359.58,1180.09 1361.56,1183.55 1363.53,1187 1365.51,1190.44 1367.49,1193.85 1369.47,1197.25 1371.45,1200.64 1373.43,1204.01 1375.41,1207.35 1377.38,1210.69 1379.36,1214 1381.34,1217.29 1383.32,1220.56 1385.3,1223.82 1387.28,1227.05 1389.25,1230.26 1391.23,1233.45 1393.21,1236.62 1395.19,1239.77 1397.17,1242.89 1399.15,1245.99 1401.13,1249.07 1403.1,1252.13 1405.08,1255.16 1407.06,1258.16 1409.04,1261.14 1411.02,1264.1 1413,1267.03 1414.97,1269.93 1416.95,1272.81 1418.93,1275.65 1420.91,1278.48 1422.89,1281.27 1424.87,1284.04 1426.84,1286.77 1428.82,1289.48 1430.8,1292.16 1432.78,1294.81 1434.76,1297.43 1436.74,1300.02 1438.72,1302.57 1440.69,1305.1 1442.67,1307.59 1444.65,1310.05 1446.63,1312.48 1448.61,1314.88 1450.59,1317.24 1452.56,1319.57 1454.54,1321.87 1456.52,1324.13 1458.5,1326.36 1460.48,1328.55 1462.46,1330.7 1464.44,1332.82 1466.41,1334.91 1468.39,1336.96 1470.37,1338.97 1472.35,1340.94 1474.33,1342.88 1476.31,1344.77 1478.28,1346.63 1480.26,1348.45 1482.24,1350.24 1484.22,1351.98 1486.2,1353.69 1488.18,1355.35 1490.15,1356.97 1492.13,1358.56 1494.11,1360.1 1496.09,1361.6 1498.07,1363.06 1500.05,1364.48 1502.03,1365.86 1504,1367.19 1505.98,1368.49 1507.96,1369.74 1509.94,1370.94 1511.92,1372.11 1513.9,1373.23 1515.87,1374.3 1517.85,1375.33 1519.83,1376.32 1521.81,1377.26 1523.79,1378.16 1525.77,1379.01 1527.75,1379.82 1529.72,1380.58 1531.7,1381.3 1533.68,1381.97 1535.66,1382.59 1537.64,1383.17 1539.62,1383.7 1541.59,1384.18 1543.57,1384.62 1545.55,1385.01 1547.53,1385.35 1549.51,1385.64 1551.49,1385.89 1553.47,1386.09 1555.44,1386.24 1557.42,1386.34 1559.4,1386.39 1561.38,1386.4 1563.36,1386.35 1565.34,1386.26 1567.31,1386.11 1569.29,1385.92 1571.27,1385.68 1573.25,1385.39 1575.23,1385.04 1577.21,1384.65 1579.18,1384.21 1581.16,1383.72 1583.14,1383.18 1585.12,1382.59 1587.1,1381.94 1589.08,1381.25 1591.06,1380.51 1593.03,1379.71 1595.01,1378.87 1596.99,1377.97 1598.97,1377.02 1600.95,1376.03 1602.93,1374.98 1604.9,1373.88 1606.88,1372.73 1608.86,1371.52 1610.84,1370.27 1612.82,1368.97 1614.8,1367.61 1616.78,1366.2 1618.75,1364.75 1620.73,1363.24 1622.71,1361.68 1624.69,1360.06 1626.67,1358.4 1628.65,1356.69 1630.62,1354.92 1632.6,1353.1 1634.58,1351.23 1636.56,1349.31 1638.54,1347.34 1640.52,1345.32 1642.5,1343.25 1644.47,1341.13 1646.45,1338.95 1648.43,1336.73 1650.41,1334.45 1652.39,1332.13 1654.37,1329.75 1656.34,1327.32 1658.32,1324.85 1660.3,1322.32 1662.28,1319.74 1664.26,1317.11 1666.24,1314.44 1668.21,1311.71 1670.19,1308.93 1672.17,1306.11 1674.15,1303.23 1676.13,1300.31 1678.11,1297.33 1680.09,1294.31 1682.06,1291.24 1684.04,1288.12 1686.02,1284.95 1688,1281.74 1689.98,1278.47 1691.96,1275.16 1693.93,1271.8 1695.91,1268.4 1697.89,1264.95 1699.87,1261.45 1701.85,1257.9 1703.83,1254.31 1705.81,1250.67 1707.78,1246.98 1709.76,1243.25 1711.74,1239.48 1713.72,1235.66 1715.7,1231.79 1717.68,1227.88 1719.65,1223.92 1721.63,1219.93 1723.61,1215.88 1725.59,1211.8 1727.57,1207.67 1729.55,1203.5 1731.52,1199.28 1733.5,1195.03 1735.48,1190.73 1737.46,1186.39 1739.44,1182.01 1741.42,1177.59 1743.4,1173.12 1745.37,1168.62 1747.35,1164.08 1749.33,1159.5 1751.31,1154.88 1753.29,1150.22 1755.27,1145.52 1757.24,1140.78 1759.22,1136.01 1761.2,1131.2 1763.18,1126.35 1765.16,1121.47 1767.14,1116.55 1769.12,1111.59 1771.09,1106.6 1773.07,1101.58 1775.05,1096.52 1777.03,1091.42 1779.01,1086.3 1780.99,1081.14 1782.96,1075.94 1784.94,1070.72 1786.92,1065.46 1788.9,1060.18 1790.88,1054.86 1792.86,1049.51 1794.84,1044.13 1796.81,1038.73 1798.79,1033.29 1800.77,1027.82 1802.75,1022.33 1804.73,1016.81 1806.71,1011.27 1808.68,1005.69 1810.66,1000.09 1812.64,994.47 1814.62,988.822 1816.6,983.148 1818.58,977.451 1820.55,971.731 1822.53,965.988 1824.51,960.223 1826.49,954.436 1828.47,948.628 1830.45,942.8 1832.43,936.951 1834.4,931.083 1836.38,925.197 1838.36,919.291 1840.34,913.368 1842.32,907.428 1844.3,901.471 1846.27,895.498 1848.25,889.51 1850.23,883.507 1852.21,877.489 1854.19,871.458 1856.17,865.413 1858.15,859.356 1860.12,853.287 1862.1,847.206 1864.08,841.115 1866.06,835.013 1868.04,828.902 1870.02,822.782 1871.99,816.654 1873.97,810.518 1875.95,804.375 1877.93,798.225 1879.91,792.069 1881.89,785.908 1883.87,779.743 1885.84,773.573 1887.82,767.4 1889.8,761.224 1891.78,755.046 1893.76,748.867 1895.74,742.686 1897.71,736.506 1899.69,730.326 1901.67,724.147 1903.65,717.969 1905.63,711.794 1907.61,705.622 1909.58,699.454 1911.56,693.289 1913.54,687.13 1915.52,680.976 1917.5,674.829 1919.48,668.688 1921.46,662.555 1923.43,656.43 1925.41,650.314 1927.39,644.207 1929.37,638.11 1931.35,632.025 1933.33,625.95 1935.3,619.888 1937.28,613.838 1939.26,607.802 1941.24,601.78 1943.22,595.773 1945.2,589.78 1947.18,583.804 1949.15,577.845 1951.13,571.903 1953.11,565.979 1955.09,560.074 1957.07,554.188 1959.05,548.322 1961.02,542.476 1963,536.652 1964.98,530.849 1966.96,525.07 1968.94,519.313 1970.92,513.58 1972.89,507.872 1974.87,502.189 1976.85,496.532 1978.83,490.901 1980.81,485.298 1982.79,479.722 1984.77,474.174 1986.74,468.656 1988.72,463.167 1990.7,457.709 1992.68,452.281 1994.66,446.885 1996.64,441.521 1998.61,436.19 2000.59,430.893 2002.57,425.63 2004.55,420.401 2006.53,415.208 2008.51,410.05 2010.49,404.929 2012.46,399.846 2014.44,394.8 2016.42,389.792 2018.4,384.824 2020.38,379.895 2022.36,375.007 2024.33,370.159 2026.31,365.352 2028.29,360.588 2030.27,355.866 2032.25,351.188 2034.23,346.553 2036.21,341.962 2038.18,337.417 2040.16,332.917 2042.14,328.462 2044.12,324.055 2046.1,319.695 2048.08,315.382 2050.05,311.118 2052.03,306.903 2054.01,302.737 2055.99,298.621 2057.97,294.556 2059.95,290.541 2061.92,286.578 2063.9,282.667 2065.88,278.809 2067.86,275.004 2069.84,271.252 2071.82,267.555 2073.8,263.912 2075.77,260.325 2077.75,256.793 2079.73,253.317 2081.71,249.898 2083.69,246.536 2085.67,243.231 2087.64,239.985 2089.62,236.797 2091.6,233.668 2093.58,230.598 2095.56,227.589 2097.54,224.639 2099.52,221.751 2101.49,218.923 2103.47,216.157 2105.45,213.454 2107.43,210.813 2109.41,208.234 2111.39,205.719 2113.36,203.268 2115.34,200.88 2117.32,198.558 2119.3,196.3 2121.28,194.107 2123.26,191.98 2125.24,189.919 2127.21,187.924 2129.19,185.996 2131.17,184.135 2133.15,182.341 2135.13,180.615 2137.11,178.957 2139.08,177.367 2141.06,175.846 2143.04,174.394 2145.02,173.012 2147,171.699 2148.98,170.455 2150.95,169.282 2152.93,168.18 2154.91,167.148 2156.89,166.187 2158.87,165.297 2160.85,164.478 2162.83,163.732 2164.8,163.057 2166.78,162.454 2168.76,161.924 2170.74,161.467 2172.72,161.082 2174.7,160.77 2176.67,160.531 2178.65,160.366 2180.63,160.274 2182.61,160.256 2184.59,160.312 2186.57,160.442 2188.55,160.646 2190.52,160.925 2192.5,161.277 2194.48,161.705 2196.46,162.207 2198.44,162.784 2200.42,163.436 2202.39,164.163 2204.37,164.965 2206.35,165.842 2208.33,166.794 2210.31,167.822 2212.29,168.925 2214.26,170.103 2216.24,171.357 2218.22,172.687 2220.2,174.091 2222.18,175.572 2224.16,177.128 2226.14,178.759 2228.11,180.466 2230.09,182.249 2232.07,184.107 2234.05,186.04 2236.03,188.049 2238.01,190.133 2239.98,192.293 2241.96,194.528 2243.94,196.838 2245.92,199.223 2247.9,201.683 2249.88,204.218 2251.86,206.828 2253.83,209.513 2255.81,212.272 2257.79,215.106 2259.77,218.014 2261.75,220.997 2263.73,224.053 2265.7,227.183 2267.68,230.387 2269.66,233.665 2271.64,237.016 2273.62,240.44 2275.6,243.937 2277.58,247.507 2279.55,251.149 2281.53,254.864 2283.51,258.651 2285.49,262.51 2287.47,266.44 2289.45,270.442 2291.42,274.515 2293.4,278.659 "></polyline>
<path clip-path="url(#clip500)" d="M325.512 270.476 L858.118 270.476 L858.118 166.796 L325.512 166.796  Z" fill="#ffffff" fill-rule="evenodd" fill-opacity="1"></path>
<polyline clip-path="url(#clip500)" style="stroke:#000000; stroke-linecap:round; stroke-linejoin:round; stroke-width:4; stroke-opacity:1; fill:none" points="325.512,270.476 858.118,270.476 858.118,166.796 325.512,166.796 325.512,270.476 "></polyline>
<polyline clip-path="url(#clip500)" style="stroke:#009af9; stroke-linecap:round; stroke-linejoin:round; stroke-width:4; stroke-opacity:1; fill:none" points="348.813,218.636 488.623,218.636 "></polyline>
<path clip-path="url(#clip500)" d="M511.925 201.356 L531.786 201.356 L531.786 205.291 L516.601 205.291 L516.601 215.476 L530.305 215.476 L530.305 219.411 L516.601 219.411 L516.601 235.916 L511.925 235.916 L511.925 201.356 Z" fill="#000000" fill-rule="nonzero" fill-opacity="1"></path><path clip-path="url(#clip500)" d="M547.365 212.976 Q543.939 212.976 541.948 215.661 Q539.957 218.323 539.957 222.976 Q539.957 227.629 541.925 230.314 Q543.916 232.976 547.365 232.976 Q550.767 232.976 552.758 230.291 Q554.749 227.606 554.749 222.976 Q554.749 218.37 552.758 215.684 Q550.767 212.976 547.365 212.976 M547.365 209.365 Q552.92 209.365 556.091 212.976 Q559.263 216.587 559.263 222.976 Q559.263 229.342 556.091 232.976 Q552.92 236.587 547.365 236.587 Q541.786 236.587 538.615 232.976 Q535.467 229.342 535.467 222.976 Q535.467 216.587 538.615 212.976 Q541.786 209.365 547.365 209.365 Z" fill="#000000" fill-rule="nonzero" fill-opacity="1"></path><path clip-path="url(#clip500)" d="M581.346 213.971 Q580.628 213.555 579.772 213.37 Q578.939 213.161 577.92 213.161 Q574.309 213.161 572.365 215.522 Q570.443 217.86 570.443 222.258 L570.443 235.916 L566.161 235.916 L566.161 209.99 L570.443 209.99 L570.443 214.018 Q571.786 211.657 573.939 210.522 Q576.091 209.365 579.17 209.365 Q579.61 209.365 580.142 209.434 Q580.675 209.481 581.323 209.596 L581.346 213.971 Z" fill="#000000" fill-rule="nonzero" fill-opacity="1"></path><path clip-path="url(#clip500)" d="M583.337 209.99 L587.596 209.99 L592.92 230.221 L598.221 209.99 L603.244 209.99 L608.568 230.221 L613.869 209.99 L618.128 209.99 L611.346 235.916 L606.323 235.916 L600.744 214.666 L595.142 235.916 L590.119 235.916 L583.337 209.99 Z" fill="#000000" fill-rule="nonzero" fill-opacity="1"></path><path clip-path="url(#clip500)" d="M636.369 222.883 Q631.207 222.883 629.216 224.064 Q627.225 225.244 627.225 228.092 Q627.225 230.36 628.707 231.703 Q630.211 233.022 632.781 233.022 Q636.323 233.022 638.452 230.522 Q640.605 227.999 640.605 223.832 L640.605 222.883 L636.369 222.883 M644.864 221.124 L644.864 235.916 L640.605 235.916 L640.605 231.981 Q639.147 234.342 636.971 235.476 Q634.795 236.587 631.647 236.587 Q627.665 236.587 625.304 234.365 Q622.966 232.119 622.966 228.369 Q622.966 223.994 625.883 221.772 Q628.823 219.55 634.633 219.55 L640.605 219.55 L640.605 219.133 Q640.605 216.194 638.66 214.596 Q636.739 212.976 633.244 212.976 Q631.022 212.976 628.915 213.508 Q626.809 214.041 624.864 215.106 L624.864 211.17 Q627.202 210.268 629.401 209.828 Q631.6 209.365 633.684 209.365 Q639.309 209.365 642.086 212.282 Q644.864 215.198 644.864 221.124 Z" fill="#000000" fill-rule="nonzero" fill-opacity="1"></path><path clip-path="url(#clip500)" d="M668.66 213.971 Q667.943 213.555 667.086 213.37 Q666.253 213.161 665.234 213.161 Q661.623 213.161 659.679 215.522 Q657.758 217.86 657.758 222.258 L657.758 235.916 L653.475 235.916 L653.475 209.99 L657.758 209.99 L657.758 214.018 Q659.1 211.657 661.253 210.522 Q663.406 209.365 666.484 209.365 Q666.924 209.365 667.457 209.434 Q667.989 209.481 668.637 209.596 L668.66 213.971 Z" fill="#000000" fill-rule="nonzero" fill-opacity="1"></path><path clip-path="url(#clip500)" d="M689.355 213.925 L689.355 199.897 L693.614 199.897 L693.614 235.916 L689.355 235.916 L689.355 232.027 Q688.012 234.342 685.952 235.476 Q683.915 236.587 681.045 236.587 Q676.345 236.587 673.383 232.837 Q670.443 229.087 670.443 222.976 Q670.443 216.865 673.383 213.115 Q676.345 209.365 681.045 209.365 Q683.915 209.365 685.952 210.499 Q688.012 211.61 689.355 213.925 M674.841 222.976 Q674.841 227.675 676.762 230.36 Q678.707 233.022 682.086 233.022 Q685.466 233.022 687.41 230.36 Q689.355 227.675 689.355 222.976 Q689.355 218.277 687.41 215.615 Q685.466 212.93 682.086 212.93 Q678.707 212.93 676.762 215.615 Q674.841 218.277 674.841 222.976 Z" fill="#000000" fill-rule="nonzero" fill-opacity="1"></path><path clip-path="url(#clip500)" d="M717.642 201.356 L739.493 201.356 L739.493 205.291 L722.317 205.291 L722.317 215.522 L738.776 215.522 L738.776 219.457 L722.317 219.457 L722.317 231.981 L739.91 231.981 L739.91 235.916 L717.642 235.916 L717.642 201.356 Z" fill="#000000" fill-rule="nonzero" fill-opacity="1"></path><path clip-path="url(#clip500)" d="M746.97 225.684 L746.97 209.99 L751.229 209.99 L751.229 225.522 Q751.229 229.203 752.664 231.055 Q754.1 232.883 756.97 232.883 Q760.419 232.883 762.41 230.684 Q764.424 228.485 764.424 224.689 L764.424 209.99 L768.683 209.99 L768.683 235.916 L764.424 235.916 L764.424 231.934 Q762.873 234.295 760.813 235.453 Q758.776 236.587 756.067 236.587 Q751.6 236.587 749.285 233.809 Q746.97 231.031 746.97 225.684 M757.688 209.365 L757.688 209.365 Z" fill="#000000" fill-rule="nonzero" fill-opacity="1"></path><path clip-path="url(#clip500)" d="M777.456 199.897 L781.715 199.897 L781.715 235.916 L777.456 235.916 L777.456 199.897 Z" fill="#000000" fill-rule="nonzero" fill-opacity="1"></path><path clip-path="url(#clip500)" d="M812.803 221.888 L812.803 223.971 L793.22 223.971 Q793.498 228.369 795.859 230.684 Q798.243 232.976 802.479 232.976 Q804.933 232.976 807.224 232.374 Q809.539 231.772 811.808 230.569 L811.808 234.596 Q809.516 235.568 807.109 236.078 Q804.701 236.587 802.224 236.587 Q796.021 236.587 792.386 232.976 Q788.775 229.365 788.775 223.207 Q788.775 216.842 792.201 213.115 Q795.65 209.365 801.484 209.365 Q806.715 209.365 809.748 212.745 Q812.803 216.101 812.803 221.888 M808.544 220.638 Q808.498 217.143 806.576 215.059 Q804.678 212.976 801.53 212.976 Q797.965 212.976 795.812 214.99 Q793.683 217.004 793.359 220.661 L808.544 220.638 Z" fill="#000000" fill-rule="nonzero" fill-opacity="1"></path><path clip-path="url(#clip500)" d="M834.817 213.971 Q834.099 213.555 833.243 213.37 Q832.409 213.161 831.391 213.161 Q827.78 213.161 825.835 215.522 Q823.914 217.86 823.914 222.258 L823.914 235.916 L819.632 235.916 L819.632 209.99 L823.914 209.99 L823.914 214.018 Q825.257 211.657 827.409 210.522 Q829.562 209.365 832.641 209.365 Q833.081 209.365 833.613 209.434 Q834.146 209.481 834.794 209.596 L834.817 213.971 Z" fill="#000000" fill-rule="nonzero" fill-opacity="1"></path></svg>